<?xml version="1.0" encoding="utf-8"?>
<!-- Generator: Adobe Illustrator 27.4.0, SVG Export Plug-In . SVG Version: 6.00 Build 0)  -->
<svg version="1.1" id="svg1" xmlns="http://www.w3.org/2000/svg" xmlns:xlink="http://www.w3.org/1999/xlink" x="0px" y="0px"
	 viewBox="0 0 256 256" style="enable-background:new 0 0 256 256;" xml:space="preserve">
<style type="text/css">
	.st0{fill:#FFFFFF;}
	.st1{fill:none;stroke:#000000;stroke-width:2.3811;stroke-miterlimit:13.6063;}
	.st2{stroke:#000000;stroke-width:2;stroke-miterlimit:13.6063;}
	.st3{font-family:'Helvetica';}
	.st4{font-size:22.1102px;}
</style>
<path id="background" d="M31.9,0h192.2C241.7,0,256,15.2,256,33.9v188.2c0,18.7-14.3,33.9-31.9,33.9H31.9C14.3,256,0,240.8,0,222.1
	V33.9C0,15.2,14.3,0,31.9,0z"/>
<g transform="translate(3.387, 3.387) scale(0.9)">
	<g>
		<g>
			<path class="st0" d="M23.1,36.6h32.7c2.9,0,5.2,2.3,5.2,5.2v32.7c0,2.9-2.3,5.2-5.2,5.2H23.1c-2.9,0-5.2-2.3-5.2-5.2V41.8
				C17.9,38.9,20.2,36.6,23.1,36.6z"/>
			<path class="st0" d="M72.6,36.6h32.7c2.9,0,5.2,2.3,5.2,5.2v32.7c0,2.9-2.3,5.2-5.2,5.2H72.6c-2.9,0-5.2-2.3-5.2-5.2V41.8
				C67.4,38.9,69.7,36.6,72.6,36.6z"/>
			<path class="st0" d="M122.1,36.6h32.7c2.9,0,5.2,2.3,5.2,5.2v32.7c0,2.9-2.3,5.2-5.2,5.2h-32.7c-2.9,0-5.2-2.3-5.2-5.2V41.8
				C116.9,38.9,119.2,36.6,122.1,36.6z"/>
			<path class="st0" d="M171.6,36.6h32.7c2.9,0,5.2,2.3,5.2,5.2v32.7c0,2.9-2.3,5.2-5.2,5.2h-32.7c-2.9,0-5.2-2.3-5.2-5.2V41.8
				C166.4,38.9,168.8,36.6,171.6,36.6z"/>
			<path class="st0" d="M221.1,36.6h32.7c2.9,0,5.2,2.3,5.2,5.2v32.7c0,2.9-2.3,5.2-5.2,5.2h-32.7c-2.9,0-5.2-2.3-5.2-5.2V41.8
				C216,38.9,218.3,36.6,221.1,36.6z"/>
		</g>
		<g>
			<path class="st0" d="M23.1,88.3h32.7c2.9,0,5.2,2.3,5.2,5.2v32.7c0,2.9-2.3,5.2-5.2,5.2H23.1c-2.9,0-5.2-2.3-5.2-5.2V93.5
				C17.9,90.6,20.2,88.3,23.1,88.3z"/>
			<path class="st0" d="M72.6,88.3h32.7c2.9,0,5.2,2.3,5.2,5.2v32.7c0,2.9-2.3,5.2-5.2,5.2H72.6c-2.9,0-5.2-2.3-5.2-5.2V93.5
				C67.4,90.6,69.7,88.3,72.6,88.3z"/>
			<path class="st0" d="M122.1,88.3h32.7c2.9,0,5.2,2.3,5.2,5.2v32.7c0,2.9-2.3,5.2-5.2,5.2h-32.7c-2.9,0-5.2-2.3-5.2-5.2V93.5
				C116.9,90.6,119.2,88.3,122.1,88.3z"/>
			<path class="st0" d="M171.6,88.3h32.7c2.9,0,5.2,2.3,5.2,5.2v32.7c0,2.9-2.3,5.2-5.2,5.2h-32.7c-2.9,0-5.2-2.3-5.2-5.2V93.5
				C166.4,90.6,168.8,88.3,171.6,88.3z"/>
			<path class="st0" d="M221.1,88.3h32.7c2.9,0,5.2,2.3,5.2,5.2v32.7c0,2.9-2.3,5.2-5.2,5.2h-32.7c-2.9,0-5.2-2.3-5.2-5.2V93.5
				C216,90.6,218.3,88.3,221.1,88.3z"/>
		</g>
	</g>
	<g>
		<circle class="st0" cx="48" cy="196.6" r="15.1"/>
		<circle class="st0" cx="108.3" cy="196.6" r="15.1"/>
		<circle class="st0" cx="168.6" cy="196.6" r="15.1"/>
		<circle class="st0" cx="228.9" cy="196.6" r="15.1"/>
		<line class="st1" x1="48" y1="182.8" x2="48" y2="190.1"/>
		<line class="st1" x1="108.3" y1="182.8" x2="108.3" y2="190.1"/>
		<line class="st1" x1="168.6" y1="182.8" x2="168.6" y2="190.1"/>
		<line class="st1" x1="228.9" y1="182.8" x2="228.9" y2="190.1"/>
	</g>
	<g>
		<path class="st0" d="M22.2,141.3h232.5c2.4,0,4.3,2.8,4.3,6.3v15.8c0,3.5-1.9,6.3-4.3,6.3H22.2c-2.4,0-4.3-2.8-4.3-6.3v-15.8
			C17.9,144.1,19.8,141.3,22.2,141.3z"/>
		<line class="st2" x1="138.5" y1="141.3" x2="138.5" y2="169.7"/>
		<line class="st2" x1="78.2" y1="141.3" x2="78.2" y2="169.7"/>
		<line class="st2" x1="198.7" y1="141.3" x2="198.7" y2="169.7"/>
	</g>
</g>
<text transform="matrix(1 0 0 1 70.2358 232.11)" class="st0 st3 st4">AKP05 / N5</text>
</svg>
